<?xml version="1.0" encoding="utf-8"?>
<!-- Generator: Adobe Illustrator 16.0.0, SVG Export Plug-In . SVG Version: 6.00 Build 0)  -->
<!DOCTYPE svg PUBLIC "-//W3C//DTD SVG 1.1//EN" "http://www.w3.org/Graphics/SVG/1.1/DTD/svg11.dtd">
<svg version="1.1" id="Layer_1" xmlns="http://www.w3.org/2000/svg" xmlns:xlink="http://www.w3.org/1999/xlink" x="0px" y="0px"
	 width="493.272px" height="292.348px" viewBox="0 0 493.272 292.348" enable-background="new 0 0 493.272 292.348"
	 xml:space="preserve">
<g>
	<path opacity="0.5" fill="#95653A" d="M303.244,25.748H198.37h-8.34c-10.727,0-20.581,3.787-28.316,10.081
		c-10.138,8.251-16.636,20.812-16.636,34.873v150.943c0,14.063,6.498,26.626,16.635,34.873c7.737,6.294,17.591,10.083,28.318,10.083
		h8.34h96.534h8.34c10.728,0,20.581-3.789,28.316-10.083c10.138-8.247,16.636-20.811,16.636-34.873V70.702
		C348.196,45.912,328.029,25.748,303.244,25.748z M166.801,247.706c-7.18-6.409-11.734-15.697-11.734-26.061V70.702
		c0-10.364,4.554-19.654,11.734-26.061l58.62,101.533h-0.046l0.022,0.04L166.801,247.706z M204.136,256.611l42.5-73.607l42.5,73.607
		H204.136z M338.206,221.645c0,10.363-4.554,19.651-11.733,26.061l-58.597-101.492l0.023-0.04L204.136,35.74h99.108
		c19.275,0,34.962,15.682,34.962,34.962V221.645z"/>
	<g>
		<g>
			<g>
				<path fill="#F97E2F" d="M209.758,92.409c0,7.6-6.16,13.756-13.754,13.756c-7.597,0-13.754-6.157-13.754-13.756
					c0-7.593,6.157-13.75,13.754-13.75C203.598,78.659,209.758,84.816,209.758,92.409z"/>
				<path fill="#F97E2F" d="M311.021,92.409c0,4.145-3.357,7.504-7.499,7.504H229.76c-4.142,0-7.502-3.359-7.502-7.504l0,0
					c0-4.14,3.36-7.499,7.502-7.499h73.762C307.664,84.91,311.021,88.27,311.021,92.409L311.021,92.409z"/>
			</g>
			<g>
				<path fill="#F97E2F" d="M209.758,146.177c0,7.596-6.16,13.75-13.754,13.75c-7.597,0-13.754-6.154-13.754-13.75
					c0-7.603,6.157-13.756,13.754-13.756C203.598,132.421,209.758,138.574,209.758,146.177z"/>
				<path fill="#F97E2F" d="M311.021,146.177c0,4.14-3.357,7.497-7.499,7.497H229.76c-4.142,0-7.502-3.357-7.502-7.497l0,0
					c0-4.146,3.36-7.505,7.502-7.505h73.762C307.664,138.672,311.021,142.031,311.021,146.177L311.021,146.177z"/>
			</g>
			<g>
				<circle fill="#F97E2F" cx="196.004" cy="199.939" r="13.754"/>
				<path fill="#F97E2F" d="M311.021,199.939c0,4.139-3.357,7.499-7.499,7.499H229.76c-4.142,0-7.502-3.36-7.502-7.499l0,0
					c0-4.143,3.36-7.504,7.502-7.504h73.762C307.664,192.435,311.021,195.796,311.021,199.939L311.021,199.939z"/>
			</g>
		</g>
	</g>
</g>
</svg>
